<svg xmlns="http://www.w3.org/2000/svg" version="1.0" fill="white" width="1080.000000pt" height="1080.000000pt" viewBox="0 0 1080.000000 1080.000000" preserveAspectRatio="xMidYMid meet">

<g transform="translate(0.000000,1080.000000) scale(0.100000,-0.100000)" fill="white" color="white" stroke="none">
<path fill="" d="M5120 10164 c-537 -47 -862 -112 -1272 -253 -1104 -381 -2023 -1145 -2600 -2161 -596 -1049 -769 -2297 -483 -3476 394 -1617 1596 -2910 3180 -3417 721 -231 1480 -285 2245 -161 524 85 1087 284 1560 552 988 559 1747 1457 2133 2523 505 1391 335 2946 -457 4189 -368 578 -896 1107 -1456 1460 -650 409 -1314 641 -2080 726 -137 15 -663 27 -770 18z m3397 -3490 c332 -49 571 -222 718 -519 46 -94 105 -260 105 -299 0 -11 -596 -194 -604 -185 -2 2 -11 30 -21 63 -66 211 -250 315 -494 277 -144 -23 -219 -73 -228 -155 -12 -99 48 -136 442 -281 329 -121 492 -200 639 -309 228 -170 337 -392 322 -656 -22 -386 -248 -630 -671 -725 -111 -26 -485 -32 -599 -11 -308 58 -539 236 -676 521 -49 101 -106 284 -92 296 8 7 575 179 591 179 6 0 11 -7 11 -16 0 -34 71 -164 115 -209 90 -92 233 -131 394 -106 137 21 212 70 227 147 9 50 -15 96 -73 138 -57 42 -142 79 -393 171 -414 151 -607 257 -750 413 -77 83 -140 198 -166 302 -23 88 -23 282 -1 373 37 152 122 290 237 384 209 173 614 260 967 207z m-6337 -534 l0 -510 248 2 247 3 3 508 2 507 365 0 365 0 0 -1380 0 -1380 -365 0 -365 0 0 505 0 505 -250 0 -250 0 0 -505 0 -505 -370 0 -370 0 0 1380 0 1380 370 0 370 0 0 -510z m3565 482 c137 -38 240 -95 326 -181 134 -135 195 -292 206 -532 4 -98 2 -143 -11 -205 -34 -154 -120 -284 -238 -359 l-46 -29 49 -22 c181 -84 309 -239 355 -429 27 -109 24 -308 -4 -410 -36 -125 -85 -209 -178 -302 -70 -70 -96 -88 -195 -137 -127 -62 -256 -99 -411 -115 -57 -7 -332 -11 -658 -11 l-560 0 0 1380 0 1381 643 -3 c626 -4 644 -4 722 -26z"/>
<path fill="white" d="M5100 5784 l0 -185 204 3 c188 3 207 5 232 24 56 41 69 70 69 147 0 93 -24 135 -97 171 -50 25 -59 26 -230 26 l-178 0 0 -186z"/>
<path fill="white" d="M5100 4770 l0 -210 203 0 c233 0 283 9 334 62 41 42 53 76 53 147 0 70 -31 136 -78 168 -51 34 -119 43 -322 43 l-190 0 0 -210z"/>
</g>
</svg>
